<?xml version="1.0" standalone="no"?>
<!DOCTYPE svg PUBLIC "-//W3C//DTD SVG 1.1//EN" "http://www.w3.org/Graphics/SVG/1.1/DTD/svg11.dtd">
<svg
  t="1773673819999"
  class="icon"
  viewBox="0 0 1199 1024"
  version="1.1"
  xmlns="http://www.w3.org/2000/svg"
  p-id="9593"
  width="74.9375"
  height="64"
  xmlns:xlink="http://www.w3.org/1999/xlink"
>
  <path
    d="M190.171429 945.005714c-8.777143 0-14.628571-2.925714-20.48-5.851428-11.702857-8.777143-17.554286-26.331429-14.628572-40.96 23.405714-78.994286 26.331429-111.177143 26.331429-122.88-111.177143-81.92-175.542857-204.8-175.542857-333.531429C5.851429 204.8 219.428571 8.777143 479.817143 8.777143c263.314286 0 473.965714 193.097143 473.965714 433.005714 0 236.982857-213.577143 433.005714-473.965714 433.005714-40.96 0-81.92-5.851429-119.954286-14.628571-5.851429 0-40.96 8.777143-152.137143 81.92-2.925714 0-8.777143 2.925714-17.554285 2.925714z m292.571428-863.085714C263.314286 81.92 81.92 242.834286 81.92 438.857143c0 111.177143 55.588571 213.577143 152.137143 280.868571 23.405714 14.628571 29.257143 46.811429 14.628571 108.251429 84.845714-46.811429 111.177143-49.737143 128.731429-43.885714 35.108571 8.777143 70.217143 11.702857 105.325714 11.702857 222.354286 0 403.748571-160.914286 403.748572-359.862857S705.097143 81.92 482.742857 81.92z m-292.571428 699.245714z"
    fill="#018CCF"
    p-id="9594"
  />
  <path
    d="M921.6 620.251429c17.554286 2.925714 108.251429 64.365714 119.954286 55.588571 14.628571-11.702857-49.737143-96.548571-49.737143-114.102857 2.925714-35.108571-23.405714-67.291429-58.514286-70.217143s-67.291429 23.405714-70.217143 58.514286c-5.851429 35.108571 20.48 67.291429 58.514286 70.217143z"
    fill="#2AC402"
    p-id="9595"
  />
  <path
    d="M1041.554286 740.205714c0 17.554286-61.44 108.251429-49.737143 122.88 11.702857 14.628571 93.622857-52.662857 111.177143-52.662857 35.108571 2.925714 67.291429-26.331429 70.217143-61.44 2.925714-35.108571-26.331429-67.291429-61.44-70.217143-38.034286-2.925714-70.217143 26.331429-70.217143 61.44z"
    fill="#0087FA"
    p-id="9596"
  />
  <path
    d="M801.645714 740.205714c2.925714-17.554286 64.365714-108.251429 55.588572-119.954285-11.702857-14.628571-96.548571 49.737143-114.102857 49.737142-35.108571-2.925714-67.291429 23.405714-70.217143 58.514286-2.925714 35.108571 23.405714 67.291429 58.514285 70.217143 35.108571 2.925714 67.291429-23.405714 70.217143-58.514286z"
    fill="#FCD514"
    p-id="9597"
  />
  <path
    d="M921.6 866.011429c-17.554286-2.925714-105.325714-67.291429-117.028571-58.514286-14.628571 11.702857 46.811429 96.548571 43.885714 117.028571-5.851429 35.108571 20.48 70.217143 58.514286 73.142857 35.108571 5.851429 70.217143-20.48 73.142857-58.514285 5.851429-38.034286-20.48-70.217143-58.514286-73.142857z"
    fill="#FF6702"
    p-id="9598"
  />
</svg>
